solid OpenSCAD_Model
  facet normal 0 0.707107 0.707107
    outer loop
      vertex 43 55 48.1667
      vertex 19.3333 45.6667 57.5
      vertex 33.6667 45.6667 57.5
    endloop
  endfacet
  facet normal 0 0.707107 0.707107
    outer loop
      vertex 19.3333 45.6667 57.5
      vertex 43 55 48.1667
      vertex 10 55 48.1667
    endloop
  endfacet
  facet normal -0.707107 0 0.707107
    outer loop
      vertex 10 4.5 48.1667
      vertex 19.3333 45.6667 57.5
      vertex 10 55 48.1667
    endloop
  endfacet
  facet normal -0.707107 0 0.707107
    outer loop
      vertex 19.3333 45.6667 57.5
      vertex 10 4.5 48.1667
      vertex 19.3333 4.5 57.5
    endloop
  endfacet
  facet normal 0.707107 0 0.707107
    outer loop
      vertex 43 4.5 48.1667
      vertex 33.6667 45.6667 57.5
      vertex 33.6667 4.5 57.5
    endloop
  endfacet
  facet normal 0.707107 0 0.707107
    outer loop
      vertex 33.6667 45.6667 57.5
      vertex 43 4.5 48.1667
      vertex 43 55 48.1667
    endloop
  endfacet
  facet normal -1 0 0
    outer loop
      vertex 10 9.5 31
      vertex 10 55 2.5
      vertex 10 9.5 2.5
    endloop
  endfacet
  facet normal -1 0 0
    outer loop
      vertex 10 55 2.5
      vertex 10 9.5 31
      vertex 10 55 48.1667
    endloop
  endfacet
  facet normal -1 0 0
    outer loop
      vertex 10 4.5 48.1667
      vertex 10 9.5 31
      vertex 10 4.5 31
    endloop
  endfacet
  facet normal -1 0 0
    outer loop
      vertex 10 9.5 31
      vertex 10 4.5 48.1667
      vertex 10 55 48.1667
    endloop
  endfacet
  facet normal -0 0 1
    outer loop
      vertex 19.3333 45.6667 57.5
      vertex 33.6667 4.5 57.5
      vertex 33.6667 45.6667 57.5
    endloop
  endfacet
  facet normal 0 0 1
    outer loop
      vertex 33.6667 4.5 57.5
      vertex 19.3333 45.6667 57.5
      vertex 19.3333 4.5 57.5
    endloop
  endfacet
  facet normal 1 0 0
    outer loop
      vertex 43 55 48.1667
      vertex 43 9.5 31
      vertex 43 55 2.5
    endloop
  endfacet
  facet normal 1 -0 0
    outer loop
      vertex 43 4.5 48.1667
      vertex 43 9.5 31
      vertex 43 55 48.1667
    endloop
  endfacet
  facet normal 1 0 0
    outer loop
      vertex 43 9.5 31
      vertex 43 4.5 48.1667
      vertex 43 4.5 31
    endloop
  endfacet
  facet normal 1 0 0
    outer loop
      vertex 43 55 2.5
      vertex 43 9.5 31
      vertex 43 9.5 2.5
    endloop
  endfacet
  facet normal -0 0 -1
    outer loop
      vertex 53 29.5 0
      vertex 48.1168 28.8303 0
      vertex 48.25 29.5 0
    endloop
  endfacet
  facet normal 0 0 -1
    outer loop
      vertex 53 4.5 0
      vertex 47.7374 28.2626 0
      vertex 48.1168 28.8303 0
    endloop
  endfacet
  facet normal 0 0 -1
    outer loop
      vertex 53 4.5 0
      vertex 47.1697 27.8832 0
      vertex 47.7374 28.2626 0
    endloop
  endfacet
  facet normal 0 0 -1
    outer loop
      vertex 53 4.5 0
      vertex 40.5 9.49 0
      vertex 47.1697 27.8832 0
    endloop
  endfacet
  facet normal 0 0 -1
    outer loop
      vertex 47.1697 27.8832 0
      vertex 40.5 9.49 0
      vertex 46.5 27.75 0
    endloop
  endfacet
  facet normal -0 0 -1
    outer loop
      vertex 46.5 27.75 0
      vertex 40.5 9.49 0
      vertex 45.8303 27.8832 0
    endloop
  endfacet
  facet normal -0 0 -1
    outer loop
      vertex 45.8303 27.8832 0
      vertex 40.5 9.49 0
      vertex 45.2626 28.2626 0
    endloop
  endfacet
  facet normal -0 0 -1
    outer loop
      vertex 45.2626 28.2626 0
      vertex 40.5 9.49 0
      vertex 44.8832 28.8303 0
    endloop
  endfacet
  facet normal 0 0 -1
    outer loop
      vertex 40.5 52.49 0
      vertex 44.75 29.5 0
      vertex 40.5 9.49 0
    endloop
  endfacet
  facet normal -0 0 -1
    outer loop
      vertex 44.8832 28.8303 0
      vertex 40.5 9.49 0
      vertex 44.75 29.5 0
    endloop
  endfacet
  facet normal 0 0 -1
    outer loop
      vertex 48.5 0 0
      vertex 35.5 4.49 0
      vertex 40.5 9.49 0
    endloop
  endfacet
  facet normal 0 0 -1
    outer loop
      vertex 48.5 0 0
      vertex 17.5 4.49 0
      vertex 35.5 4.49 0
    endloop
  endfacet
  facet normal 0 0 -1
    outer loop
      vertex 8.25 29.5 0
      vertex 12.5 52.49 0
      vertex 12.5 9.49 0
    endloop
  endfacet
  facet normal 0 0 -1
    outer loop
      vertex 8.11679 30.1697 0
      vertex 12.5 52.49 0
      vertex 8.25 29.5 0
    endloop
  endfacet
  facet normal 0 0 -1
    outer loop
      vertex 12.5 9.49 0
      vertex 8.11679 28.8303 0
      vertex 8.25 29.5 0
    endloop
  endfacet
  facet normal 0 0 -1
    outer loop
      vertex 12.5 9.49 0
      vertex 7.73744 28.2626 0
      vertex 8.11679 28.8303 0
    endloop
  endfacet
  facet normal 0 0 -1
    outer loop
      vertex 12.5 9.49 0
      vertex 7.1697 27.8832 0
      vertex 7.73744 28.2626 0
    endloop
  endfacet
  facet normal 0 0 -1
    outer loop
      vertex 12.5 9.49 0
      vertex 6.5 27.75 0
      vertex 7.1697 27.8832 0
    endloop
  endfacet
  facet normal 0 0 -1
    outer loop
      vertex 12.5 9.49 0
      vertex 5.8303 27.8832 0
      vertex 6.5 27.75 0
    endloop
  endfacet
  facet normal 0 0 -1
    outer loop
      vertex 0 4.5 0
      vertex 5.8303 27.8832 0
      vertex 12.5 9.49 0
    endloop
  endfacet
  facet normal 0 0 -1
    outer loop
      vertex 0 29.5 0
      vertex 5.8303 27.8832 0
      vertex 0 4.5 0
    endloop
  endfacet
  facet normal 0 0 -1
    outer loop
      vertex 5.8303 27.8832 0
      vertex 0 29.5 0
      vertex 5.26256 28.2626 0
    endloop
  endfacet
  facet normal 0 0 -1
    outer loop
      vertex 0 4.5 0
      vertex 12.5 9.49 0
      vertex 4.5 0 0
    endloop
  endfacet
  facet normal -0 0 -1
    outer loop
      vertex 17.5 4.49 0
      vertex 4.5 0 0
      vertex 12.5 9.49 0
    endloop
  endfacet
  facet normal 0 0 -1
    outer loop
      vertex 4.5 0 0
      vertex 17.5 4.49 0
      vertex 48.5 0 0
    endloop
  endfacet
  facet normal 0 0 -1
    outer loop
      vertex 40.5 9.49 0
      vertex 53 4.5 0
      vertex 48.5 0 0
    endloop
  endfacet
  facet normal 0 0 -1
    outer loop
      vertex 48.1168 28.8303 0
      vertex 53 29.5 0
      vertex 53 4.5 0
    endloop
  endfacet
  facet normal 0 0 -1
    outer loop
      vertex 48.1168 30.1697 0
      vertex 53 29.5 0
      vertex 48.25 29.5 0
    endloop
  endfacet
  facet normal 0 0 -1
    outer loop
      vertex 47.7374 30.7374 0
      vertex 53 29.5 0
      vertex 48.1168 30.1697 0
    endloop
  endfacet
  facet normal 0 0 -1
    outer loop
      vertex 47.1697 31.1168 0
      vertex 53 29.5 0
      vertex 47.7374 30.7374 0
    endloop
  endfacet
  facet normal 0 0 -1
    outer loop
      vertex 47.1697 31.1168 0
      vertex 43 60 0
      vertex 53 29.5 0
    endloop
  endfacet
  facet normal 0 0 -1
    outer loop
      vertex 46.5 31.25 0
      vertex 43 60 0
      vertex 47.1697 31.1168 0
    endloop
  endfacet
  facet normal 0 0 -1
    outer loop
      vertex 45.8303 31.1168 0
      vertex 43 60 0
      vertex 46.5 31.25 0
    endloop
  endfacet
  facet normal 0 0 -1
    outer loop
      vertex 45.2626 30.7374 0
      vertex 43 60 0
      vertex 45.8303 31.1168 0
    endloop
  endfacet
  facet normal 0 0 -1
    outer loop
      vertex 44.8832 30.1697 0
      vertex 43 60 0
      vertex 45.2626 30.7374 0
    endloop
  endfacet
  facet normal 0 0 -1
    outer loop
      vertex 43 60 0
      vertex 44.8832 30.1697 0
      vertex 44.75 29.5 0
    endloop
  endfacet
  facet normal 0 0 -1
    outer loop
      vertex 44.75 29.5 0
      vertex 40.5 52.49 0
      vertex 43 60 0
    endloop
  endfacet
  facet normal 0 0 -1
    outer loop
      vertex 12.5 52.49 0
      vertex 43 60 0
      vertex 40.5 52.49 0
    endloop
  endfacet
  facet normal -0 0 -1
    outer loop
      vertex 43 60 0
      vertex 12.5 52.49 0
      vertex 10 60 0
    endloop
  endfacet
  facet normal 0 0 -1
    outer loop
      vertex 7.73744 30.7374 0
      vertex 12.5 52.49 0
      vertex 8.11679 30.1697 0
    endloop
  endfacet
  facet normal 0 0 -1
    outer loop
      vertex 7.1697 31.1168 0
      vertex 12.5 52.49 0
      vertex 7.73744 30.7374 0
    endloop
  endfacet
  facet normal 0 0 -1
    outer loop
      vertex 6.5 31.25 0
      vertex 12.5 52.49 0
      vertex 7.1697 31.1168 0
    endloop
  endfacet
  facet normal 0 0 -1
    outer loop
      vertex 5.8303 31.1168 0
      vertex 12.5 52.49 0
      vertex 6.5 31.25 0
    endloop
  endfacet
  facet normal 0 0 -1
    outer loop
      vertex 0 29.5 0
      vertex 12.5 52.49 0
      vertex 5.8303 31.1168 0
    endloop
  endfacet
  facet normal 0 0 -1
    outer loop
      vertex 0 29.5 0
      vertex 5.8303 31.1168 0
      vertex 5.26256 30.7374 0
    endloop
  endfacet
  facet normal 0 0 -1
    outer loop
      vertex 0 29.5 0
      vertex 5.26256 30.7374 0
      vertex 4.88321 30.1697 0
    endloop
  endfacet
  facet normal 0 0 -1
    outer loop
      vertex 0 29.5 0
      vertex 4.88321 30.1697 0
      vertex 4.75 29.5 0
    endloop
  endfacet
  facet normal 0 0 -1
    outer loop
      vertex 5.26256 28.2626 0
      vertex 0 29.5 0
      vertex 4.88321 28.8303 0
    endloop
  endfacet
  facet normal 0 0 -1
    outer loop
      vertex 4.88321 28.8303 0
      vertex 0 29.5 0
      vertex 4.75 29.5 0
    endloop
  endfacet
  facet normal -0 0 -1
    outer loop
      vertex 12.5 52.49 0
      vertex 0 29.5 0
      vertex 10 60 0
    endloop
  endfacet
  facet normal 0 -1 0
    outer loop
      vertex 35.51 4.5 2.5
      vertex 44.25 4.5 13
      vertex 35.51 4.5 13
    endloop
  endfacet
  facet normal 0 -1 0
    outer loop
      vertex 53 4.5 2.5
      vertex 44.25 4.5 13
      vertex 35.51 4.5 2.5
    endloop
  endfacet
  facet normal 0 -1 0
    outer loop
      vertex 44.25 4.5 13
      vertex 53 4.5 2.5
      vertex 53 4.5 13
    endloop
  endfacet
  facet normal 0 -1 0
    outer loop
      vertex 0 4.5 28.5
      vertex 0 4.5 22
      vertex 2.05391e-15 4.5 28.5
    endloop
  endfacet
  facet normal 0 -1 0
    outer loop
      vertex 8.75 4.5 22
      vertex 2.5 4.5 31
      vertex 2.05391e-15 4.5 28.5
    endloop
  endfacet
  facet normal 0 -1 0
    outer loop
      vertex 19.3333 4.5 57.5
      vertex 21.8333 4.5 55
      vertex 33.6667 4.5 57.5
    endloop
  endfacet
  facet normal 0 -1 -0
    outer loop
      vertex 19.3333 4.5 57.5
      vertex 17.49 4.5 50.6567
      vertex 21.8333 4.5 55
    endloop
  endfacet
  facet normal 0 -1 0
    outer loop
      vertex 10 4.5 48.1667
      vertex 17.49 4.5 50.6567
      vertex 19.3333 4.5 57.5
    endloop
  endfacet
  facet normal 0 -1 0
    outer loop
      vertex 10 4.5 31
      vertex 17.49 4.5 50.6567
      vertex 10 4.5 48.1667
    endloop
  endfacet
  facet normal 0 -1 0
    outer loop
      vertex 8.75 4.5 22
      vertex 2.05391e-15 4.5 28.5
      vertex 0 4.5 22
    endloop
  endfacet
  facet normal 0 -1 0
    outer loop
      vertex 2.5 4.5 31
      vertex 8.75 4.5 22
      vertex 10 4.5 31
    endloop
  endfacet
  facet normal 0 -1 0
    outer loop
      vertex 17.49 4.5 22
      vertex 10 4.5 31
      vertex 8.75 4.5 22
    endloop
  endfacet
  facet normal 0 -1 0
    outer loop
      vertex 10 4.5 31
      vertex 17.49 4.5 22
      vertex 17.49 4.5 50.6567
    endloop
  endfacet
  facet normal 0 -1 0
    outer loop
      vertex 31.1667 4.5 55
      vertex 33.6667 4.5 57.5
      vertex 21.8333 4.5 55
    endloop
  endfacet
  facet normal 0 -1 0
    outer loop
      vertex 35.51 4.5 50.6567
      vertex 33.6667 4.5 57.5
      vertex 31.1667 4.5 55
    endloop
  endfacet
  facet normal 0 -1 0
    outer loop
      vertex 35.51 4.5 50.6567
      vertex 43 4.5 48.1667
      vertex 33.6667 4.5 57.5
    endloop
  endfacet
  facet normal 0 -1 0
    outer loop
      vertex 35.51 4.5 50.6567
      vertex 43 4.5 31
      vertex 43 4.5 48.1667
    endloop
  endfacet
  facet normal 0 -1 0
    outer loop
      vertex 44.25 4.5 22
      vertex 50.5 4.5 31
      vertex 43 4.5 31
    endloop
  endfacet
  facet normal 0 -1 0
    outer loop
      vertex 35.51 4.5 22
      vertex 43 4.5 31
      vertex 35.51 4.5 50.6567
    endloop
  endfacet
  facet normal 0 -1 0
    outer loop
      vertex 44.25 4.5 22
      vertex 43 4.5 31
      vertex 35.51 4.5 22
    endloop
  endfacet
  facet normal 0 -1 -0
    outer loop
      vertex 50.5 4.5 31
      vertex 44.25 4.5 22
      vertex 53 4.5 28.5
    endloop
  endfacet
  facet normal 0 -1 -0
    outer loop
      vertex 53 4.5 28.5
      vertex 44.25 4.5 22
      vertex 53 4.5 22
    endloop
  endfacet
  facet normal 0 -1 0
    outer loop
      vertex 0 4.5 2.5
      vertex 8.75 4.5 13
      vertex 0 4.5 13
    endloop
  endfacet
  facet normal 0 -1 0
    outer loop
      vertex 17.49 4.5 2.5
      vertex 8.75 4.5 13
      vertex 0 4.5 2.5
    endloop
  endfacet
  facet normal 0 -1 0
    outer loop
      vertex 8.75 4.5 13
      vertex 17.49 4.5 2.5
      vertex 17.49 4.5 13
    endloop
  endfacet
  facet normal 0 1 -0
    outer loop
      vertex 43 55 2.5
      vertex 10 55 48.1667
      vertex 43 55 48.1667
    endloop
  endfacet
  facet normal 0 1 0
    outer loop
      vertex 10 55 48.1667
      vertex 43 55 2.5
      vertex 10 55 2.5
    endloop
  endfacet
  facet normal 0 -0.707107 -0.707107
    outer loop
      vertex 12.5 52.49 45.6667
      vertex 31.1667 43.1567 55
      vertex 21.8333 43.1567 55
    endloop
  endfacet
  facet normal 0 -0.707107 -0.707107
    outer loop
      vertex 31.1667 43.1567 55
      vertex 12.5 52.49 45.6667
      vertex 40.5 52.49 45.6667
    endloop
  endfacet
  facet normal 0.707107 0 -0.707107
    outer loop
      vertex 21.8333 43.1567 55
      vertex 12.5 9.49 45.6667
      vertex 12.5 52.49 45.6667
    endloop
  endfacet
  facet normal 0.707107 0 -0.707107
    outer loop
      vertex 21.8333 4.5 55
      vertex 12.5 9.49 45.6667
      vertex 21.8333 43.1567 55
    endloop
  endfacet
  facet normal 0.707107 -1.15911e-15 -0.707107
    outer loop
      vertex 12.5 9.49 45.6667
      vertex 21.8333 4.5 55
      vertex 17.49 4.5 50.6567
    endloop
  endfacet
  facet normal 0.707107 0.707107 0
    outer loop
      vertex 17.5 4.49 21.99
      vertex 17.49 4.5 13
      vertex 17.49 4.5 22
    endloop
  endfacet
  facet normal 0.707107 0.707107 0
    outer loop
      vertex 17.49 4.5 13
      vertex 17.5 4.49 21.99
      vertex 17.5 4.49 13.01
    endloop
  endfacet
  facet normal 0.707107 0.707107 -0
    outer loop
      vertex 17.49 4.5 22
      vertex 12.5 9.49 45.6667
      vertex 17.49 4.5 50.6567
    endloop
  endfacet
  facet normal 0.707107 0.707107 0
    outer loop
      vertex 12.5 9.49 45.6667
      vertex 17.49 4.5 22
      vertex 12.5 9.49 0
    endloop
  endfacet
  facet normal 0.707107 0.707107 -0
    outer loop
      vertex 17.49 4.5 13
      vertex 12.5 9.49 0
      vertex 17.49 4.5 22
    endloop
  endfacet
  facet normal 0.707107 0.707107 -0
    outer loop
      vertex 17.49 4.5 2.5
      vertex 12.5 9.49 0
      vertex 17.49 4.5 13
    endloop
  endfacet
  facet normal 0.707107 0.707107 -0
    outer loop
      vertex 17.5 4.49 0
      vertex 17.49 4.5 2.5
      vertex 17.5 4.49 2.5
    endloop
  endfacet
  facet normal 0.707107 0.707107 5.0243e-16
    outer loop
      vertex 17.49 4.5 2.5
      vertex 17.5 4.49 0
      vertex 12.5 9.49 0
    endloop
  endfacet
  facet normal -0.707107 0.707107 0
    outer loop
      vertex 35.5 4.49 13.01
      vertex 35.51 4.5 22
      vertex 35.51 4.5 13
    endloop
  endfacet
  facet normal -0.707107 0.707107 0
    outer loop
      vertex 35.51 4.5 22
      vertex 35.5 4.49 13.01
      vertex 35.5 4.49 21.99
    endloop
  endfacet
  facet normal -0.707107 0.707107 0
    outer loop
      vertex 35.51 4.5 13
      vertex 40.5 9.49 0
      vertex 35.51 4.5 2.5
    endloop
  endfacet
  facet normal -0.707107 0.707107 -5.0243e-16
    outer loop
      vertex 35.5 4.49 0
      vertex 35.51 4.5 2.5
      vertex 40.5 9.49 0
    endloop
  endfacet
  facet normal -0.707107 0.707107 0
    outer loop
      vertex 35.51 4.5 2.5
      vertex 35.5 4.49 0
      vertex 35.5 4.49 2.5
    endloop
  endfacet
  facet normal -0.707107 0.707107 0
    outer loop
      vertex 35.51 4.5 22
      vertex 40.5 9.49 0
      vertex 35.51 4.5 13
    endloop
  endfacet
  facet normal -0.707107 0.707107 0
    outer loop
      vertex 40.5 9.49 0
      vertex 35.51 4.5 22
      vertex 40.5 9.49 45.6667
    endloop
  endfacet
  facet normal -0.707107 0.707107 0
    outer loop
      vertex 40.5 9.49 45.6667
      vertex 35.51 4.5 22
      vertex 35.51 4.5 50.6567
    endloop
  endfacet
  facet normal -0.707107 0 -0.707107
    outer loop
      vertex 40.5 9.49 45.6667
      vertex 31.1667 43.1567 55
      vertex 40.5 52.49 45.6667
    endloop
  endfacet
  facet normal -0.707107 0 -0.707107
    outer loop
      vertex 31.1667 4.5 55
      vertex 40.5 9.49 45.6667
      vertex 35.51 4.5 50.6567
    endloop
  endfacet
  facet normal -0.707107 0 -0.707107
    outer loop
      vertex 40.5 9.49 45.6667
      vertex 31.1667 4.5 55
      vertex 31.1667 43.1567 55
    endloop
  endfacet
  facet normal 1 -0 0
    outer loop
      vertex 12.5 9.49 45.6667
      vertex 12.5 52.49 0
      vertex 12.5 52.49 45.6667
    endloop
  endfacet
  facet normal 1 0 0
    outer loop
      vertex 12.5 52.49 0
      vertex 12.5 9.49 45.6667
      vertex 12.5 9.49 0
    endloop
  endfacet
  facet normal 0 0 -1
    outer loop
      vertex 21.8333 4.5 55
      vertex 31.1667 43.1567 55
      vertex 31.1667 4.5 55
    endloop
  endfacet
  facet normal -0 0 -1
    outer loop
      vertex 31.1667 43.1567 55
      vertex 21.8333 4.5 55
      vertex 21.8333 43.1567 55
    endloop
  endfacet
  facet normal -1 0 0
    outer loop
      vertex 40.5 9.49 0
      vertex 40.5 52.49 45.6667
      vertex 40.5 52.49 0
    endloop
  endfacet
  facet normal -1 -0 0
    outer loop
      vertex 40.5 52.49 45.6667
      vertex 40.5 9.49 0
      vertex 40.5 9.49 45.6667
    endloop
  endfacet
  facet normal 0 1 -0
    outer loop
      vertex 35.5 4.49 0
      vertex 17.5 4.49 2.5
      vertex 35.5 4.49 2.5
    endloop
  endfacet
  facet normal 0 1 0
    outer loop
      vertex 17.5 4.49 2.5
      vertex 35.5 4.49 0
      vertex 17.5 4.49 0
    endloop
  endfacet
  facet normal 0 -1 0
    outer loop
      vertex 12.5 52.49 0
      vertex 40.5 52.49 45.6667
      vertex 12.5 52.49 45.6667
    endloop
  endfacet
  facet normal 0 -1 -0
    outer loop
      vertex 40.5 52.49 45.6667
      vertex 12.5 52.49 0
      vertex 40.5 52.49 0
    endloop
  endfacet
  facet normal -0.980786 -0.195088 0
    outer loop
      vertex 8.25 29.5 0
      vertex 8.11679 30.1697 2.5
      vertex 8.11679 30.1697 0
    endloop
  endfacet
  facet normal -0.980786 -0.195088 0
    outer loop
      vertex 8.11679 30.1697 2.5
      vertex 8.25 29.5 0
      vertex 8.25 29.5 2.5
    endloop
  endfacet
  facet normal 0.980786 -0.195088 0
    outer loop
      vertex 4.75 29.5 2.5
      vertex 4.88321 30.1697 0
      vertex 4.88321 30.1697 2.5
    endloop
  endfacet
  facet normal 0.980786 -0.195088 0
    outer loop
      vertex 4.88321 30.1697 0
      vertex 4.75 29.5 2.5
      vertex 4.75 29.5 0
    endloop
  endfacet
  facet normal -0.195074 -0.980789 0
    outer loop
      vertex 6.5 31.25 0
      vertex 7.1697 31.1168 2.5
      vertex 6.5 31.25 2.5
    endloop
  endfacet
  facet normal -0.195074 -0.980789 -0
    outer loop
      vertex 7.1697 31.1168 2.5
      vertex 6.5 31.25 0
      vertex 7.1697 31.1168 0
    endloop
  endfacet
  facet normal 0.195074 0.980789 -0
    outer loop
      vertex 6.5 27.75 0
      vertex 5.8303 27.8832 2.5
      vertex 6.5 27.75 2.5
    endloop
  endfacet
  facet normal 0.195074 0.980789 0
    outer loop
      vertex 5.8303 27.8832 2.5
      vertex 6.5 27.75 0
      vertex 5.8303 27.8832 0
    endloop
  endfacet
  facet normal -0.555619 -0.831437 0
    outer loop
      vertex 7.1697 31.1168 0
      vertex 7.73744 30.7374 2.5
      vertex 7.1697 31.1168 2.5
    endloop
  endfacet
  facet normal -0.555619 -0.831437 -0
    outer loop
      vertex 7.73744 30.7374 2.5
      vertex 7.1697 31.1168 0
      vertex 7.73744 30.7374 0
    endloop
  endfacet
  facet normal -0.831453 -0.555596 0
    outer loop
      vertex 8.11679 30.1697 0
      vertex 7.73744 30.7374 2.5
      vertex 7.73744 30.7374 0
    endloop
  endfacet
  facet normal -0.831453 -0.555596 0
    outer loop
      vertex 7.73744 30.7374 2.5
      vertex 8.11679 30.1697 0
      vertex 8.11679 30.1697 2.5
    endloop
  endfacet
  facet normal 0.555619 -0.831437 0
    outer loop
      vertex 5.26256 30.7374 0
      vertex 5.8303 31.1168 2.5
      vertex 5.26256 30.7374 2.5
    endloop
  endfacet
  facet normal 0.555619 -0.831437 0
    outer loop
      vertex 5.8303 31.1168 2.5
      vertex 5.26256 30.7374 0
      vertex 5.8303 31.1168 0
    endloop
  endfacet
  facet normal 0.831453 -0.555596 0
    outer loop
      vertex 4.88321 30.1697 2.5
      vertex 5.26256 30.7374 0
      vertex 5.26256 30.7374 2.5
    endloop
  endfacet
  facet normal 0.831453 -0.555596 0
    outer loop
      vertex 5.26256 30.7374 0
      vertex 4.88321 30.1697 2.5
      vertex 4.88321 30.1697 0
    endloop
  endfacet
  facet normal 0.195074 -0.980789 0
    outer loop
      vertex 5.8303 31.1168 0
      vertex 6.5 31.25 2.5
      vertex 5.8303 31.1168 2.5
    endloop
  endfacet
  facet normal 0.195074 -0.980789 0
    outer loop
      vertex 6.5 31.25 2.5
      vertex 5.8303 31.1168 0
      vertex 6.5 31.25 0
    endloop
  endfacet
  facet normal 0.555619 0.831437 -0
    outer loop
      vertex 5.8303 27.8832 0
      vertex 5.26256 28.2626 2.5
      vertex 5.8303 27.8832 2.5
    endloop
  endfacet
  facet normal 0.555619 0.831437 0
    outer loop
      vertex 5.26256 28.2626 2.5
      vertex 5.8303 27.8832 0
      vertex 5.26256 28.2626 0
    endloop
  endfacet
  facet normal 0.980786 0.195088 0
    outer loop
      vertex 4.88321 28.8303 2.5
      vertex 4.75 29.5 0
      vertex 4.75 29.5 2.5
    endloop
  endfacet
  facet normal 0.980786 0.195088 0
    outer loop
      vertex 4.75 29.5 0
      vertex 4.88321 28.8303 2.5
      vertex 4.88321 28.8303 0
    endloop
  endfacet
  facet normal -0.195074 0.980789 0
    outer loop
      vertex 7.1697 27.8832 0
      vertex 6.5 27.75 2.5
      vertex 7.1697 27.8832 2.5
    endloop
  endfacet
  facet normal -0.195074 0.980789 0
    outer loop
      vertex 6.5 27.75 2.5
      vertex 7.1697 27.8832 0
      vertex 6.5 27.75 0
    endloop
  endfacet
  facet normal -0.980786 0.195088 0
    outer loop
      vertex 8.11679 28.8303 0
      vertex 8.25 29.5 2.5
      vertex 8.25 29.5 0
    endloop
  endfacet
  facet normal -0.980786 0.195088 0
    outer loop
      vertex 8.25 29.5 2.5
      vertex 8.11679 28.8303 0
      vertex 8.11679 28.8303 2.5
    endloop
  endfacet
  facet normal 0.831453 0.555596 0
    outer loop
      vertex 5.26256 28.2626 2.5
      vertex 4.88321 28.8303 0
      vertex 4.88321 28.8303 2.5
    endloop
  endfacet
  facet normal 0.831453 0.555596 0
    outer loop
      vertex 4.88321 28.8303 0
      vertex 5.26256 28.2626 2.5
      vertex 5.26256 28.2626 0
    endloop
  endfacet
  facet normal -0.555619 0.831437 0
    outer loop
      vertex 7.73744 28.2626 0
      vertex 7.1697 27.8832 2.5
      vertex 7.73744 28.2626 2.5
    endloop
  endfacet
  facet normal -0.555619 0.831437 0
    outer loop
      vertex 7.1697 27.8832 2.5
      vertex 7.73744 28.2626 0
      vertex 7.1697 27.8832 0
    endloop
  endfacet
  facet normal -0.831453 0.555596 0
    outer loop
      vertex 7.73744 28.2626 0
      vertex 8.11679 28.8303 2.5
      vertex 8.11679 28.8303 0
    endloop
  endfacet
  facet normal -0.831453 0.555596 0
    outer loop
      vertex 8.11679 28.8303 2.5
      vertex 7.73744 28.2626 0
      vertex 7.73744 28.2626 2.5
    endloop
  endfacet
  facet normal -0.980789 -0.195074 0
    outer loop
      vertex 48.25 29.5 0
      vertex 48.1168 30.1697 2.5
      vertex 48.1168 30.1697 0
    endloop
  endfacet
  facet normal -0.980789 -0.195074 0
    outer loop
      vertex 48.1168 30.1697 2.5
      vertex 48.25 29.5 0
      vertex 48.25 29.5 2.5
    endloop
  endfacet
  facet normal 0.980789 -0.195074 0
    outer loop
      vertex 44.75 29.5 2.5
      vertex 44.8832 30.1697 0
      vertex 44.8832 30.1697 2.5
    endloop
  endfacet
  facet normal 0.980789 -0.195074 0
    outer loop
      vertex 44.8832 30.1697 0
      vertex 44.75 29.5 2.5
      vertex 44.75 29.5 0
    endloop
  endfacet
  facet normal -0.195074 -0.980789 0
    outer loop
      vertex 46.5 31.25 0
      vertex 47.1697 31.1168 2.5
      vertex 46.5 31.25 2.5
    endloop
  endfacet
  facet normal -0.195074 -0.980789 -0
    outer loop
      vertex 47.1697 31.1168 2.5
      vertex 46.5 31.25 0
      vertex 47.1697 31.1168 0
    endloop
  endfacet
  facet normal -0.195074 0.980789 0
    outer loop
      vertex 47.1697 27.8832 0
      vertex 46.5 27.75 2.5
      vertex 47.1697 27.8832 2.5
    endloop
  endfacet
  facet normal -0.195074 0.980789 0
    outer loop
      vertex 46.5 27.75 2.5
      vertex 47.1697 27.8832 0
      vertex 46.5 27.75 0
    endloop
  endfacet
  facet normal 0.195074 0.980789 -0
    outer loop
      vertex 46.5 27.75 0
      vertex 45.8303 27.8832 2.5
      vertex 46.5 27.75 2.5
    endloop
  endfacet
  facet normal 0.195074 0.980789 0
    outer loop
      vertex 45.8303 27.8832 2.5
      vertex 46.5 27.75 0
      vertex 45.8303 27.8832 0
    endloop
  endfacet
  facet normal -0.555646 -0.831419 0
    outer loop
      vertex 47.1697 31.1168 0
      vertex 47.7374 30.7374 2.5
      vertex 47.1697 31.1168 2.5
    endloop
  endfacet
  facet normal -0.555646 -0.831419 -0
    outer loop
      vertex 47.7374 30.7374 2.5
      vertex 47.1697 31.1168 0
      vertex 47.7374 30.7374 0
    endloop
  endfacet
  facet normal -0.831419 -0.555646 0
    outer loop
      vertex 48.1168 30.1697 0
      vertex 47.7374 30.7374 2.5
      vertex 47.7374 30.7374 0
    endloop
  endfacet
  facet normal -0.831419 -0.555646 0
    outer loop
      vertex 47.7374 30.7374 2.5
      vertex 48.1168 30.1697 0
      vertex 48.1168 30.1697 2.5
    endloop
  endfacet
  facet normal 0.195074 -0.980789 0
    outer loop
      vertex 45.8303 31.1168 0
      vertex 46.5 31.25 2.5
      vertex 45.8303 31.1168 2.5
    endloop
  endfacet
  facet normal 0.195074 -0.980789 0
    outer loop
      vertex 46.5 31.25 2.5
      vertex 45.8303 31.1168 0
      vertex 46.5 31.25 0
    endloop
  endfacet
  facet normal 0.831419 -0.555646 0
    outer loop
      vertex 44.8832 30.1697 2.5
      vertex 45.2626 30.7374 0
      vertex 45.2626 30.7374 2.5
    endloop
  endfacet
  facet normal 0.831419 -0.555646 0
    outer loop
      vertex 45.2626 30.7374 0
      vertex 44.8832 30.1697 2.5
      vertex 44.8832 30.1697 0
    endloop
  endfacet
  facet normal 0.555646 -0.831419 0
    outer loop
      vertex 45.2626 30.7374 0
      vertex 45.8303 31.1168 2.5
      vertex 45.2626 30.7374 2.5
    endloop
  endfacet
  facet normal 0.555646 -0.831419 0
    outer loop
      vertex 45.8303 31.1168 2.5
      vertex 45.2626 30.7374 0
      vertex 45.8303 31.1168 0
    endloop
  endfacet
  facet normal 0.980789 0.195074 0
    outer loop
      vertex 44.8832 28.8303 2.5
      vertex 44.75 29.5 0
      vertex 44.75 29.5 2.5
    endloop
  endfacet
  facet normal 0.980789 0.195074 0
    outer loop
      vertex 44.75 29.5 0
      vertex 44.8832 28.8303 2.5
      vertex 44.8832 28.8303 0
    endloop
  endfacet
  facet normal 0.555646 0.831419 -0
    outer loop
      vertex 45.8303 27.8832 0
      vertex 45.2626 28.2626 2.5
      vertex 45.8303 27.8832 2.5
    endloop
  endfacet
  facet normal 0.555646 0.831419 0
    outer loop
      vertex 45.2626 28.2626 2.5
      vertex 45.8303 27.8832 0
      vertex 45.2626 28.2626 0
    endloop
  endfacet
  facet normal 0.831419 0.555646 0
    outer loop
      vertex 45.2626 28.2626 2.5
      vertex 44.8832 28.8303 0
      vertex 44.8832 28.8303 2.5
    endloop
  endfacet
  facet normal 0.831419 0.555646 0
    outer loop
      vertex 44.8832 28.8303 0
      vertex 45.2626 28.2626 2.5
      vertex 45.2626 28.2626 0
    endloop
  endfacet
  facet normal -0.555646 0.831419 0
    outer loop
      vertex 47.7374 28.2626 0
      vertex 47.1697 27.8832 2.5
      vertex 47.7374 28.2626 2.5
    endloop
  endfacet
  facet normal -0.555646 0.831419 0
    outer loop
      vertex 47.1697 27.8832 2.5
      vertex 47.7374 28.2626 0
      vertex 47.1697 27.8832 0
    endloop
  endfacet
  facet normal -0.980789 0.195074 0
    outer loop
      vertex 48.1168 28.8303 0
      vertex 48.25 29.5 2.5
      vertex 48.25 29.5 0
    endloop
  endfacet
  facet normal -0.980789 0.195074 0
    outer loop
      vertex 48.25 29.5 2.5
      vertex 48.1168 28.8303 0
      vertex 48.1168 28.8303 2.5
    endloop
  endfacet
  facet normal -0.831419 0.555646 0
    outer loop
      vertex 47.7374 28.2626 0
      vertex 48.1168 28.8303 2.5
      vertex 48.1168 28.8303 0
    endloop
  endfacet
  facet normal -0.831419 0.555646 0
    outer loop
      vertex 48.1168 28.8303 2.5
      vertex 47.7374 28.2626 0
      vertex 47.7374 28.2626 2.5
    endloop
  endfacet
  facet normal -0 0 1
    outer loop
      vertex 0 9.5 28.5
      vertex 2.05391e-15 4.5 28.5
      vertex 3.16414e-15 9.5 28.5
    endloop
  endfacet
  facet normal 0 0 1
    outer loop
      vertex 2.05391e-15 4.5 28.5
      vertex 0 9.5 28.5
      vertex 0 4.5 28.5
    endloop
  endfacet
  facet normal -0.707107 1.5701e-16 0.707107
    outer loop
      vertex 2.05391e-15 4.5 28.5
      vertex 2.5 9.5 31
      vertex 3.16414e-15 9.5 28.5
    endloop
  endfacet
  facet normal -0.707107 0 0.707107
    outer loop
      vertex 2.5 9.5 31
      vertex 2.05391e-15 4.5 28.5
      vertex 2.5 4.5 31
    endloop
  endfacet
  facet normal -1 0 0
    outer loop
      vertex 0 3.5 14
      vertex 0 4.5 22
      vertex 0 4.5 13
    endloop
  endfacet
  facet normal -1 0 0
    outer loop
      vertex 0 4.5 22
      vertex 0 3.5 14
      vertex 0 3.5 21
    endloop
  endfacet
  facet normal -1 0 0
    outer loop
      vertex 0 29.5 0
      vertex 0 9.5 2.5
      vertex 0 29.5 2.5
    endloop
  endfacet
  facet normal -1 0 0
    outer loop
      vertex 0 4.5 0
      vertex 0 9.5 2.5
      vertex 0 29.5 0
    endloop
  endfacet
  facet normal -1 0 0
    outer loop
      vertex 0 4.5 2.5
      vertex 0 9.5 2.5
      vertex 0 4.5 0
    endloop
  endfacet
  facet normal -1 0 0
    outer loop
      vertex 0 4.5 13
      vertex 0 9.5 2.5
      vertex 0 4.5 2.5
    endloop
  endfacet
  facet normal -1 0 0
    outer loop
      vertex 0 9.5 2.5
      vertex 0 4.5 13
      vertex 0 9.5 28.5
    endloop
  endfacet
  facet normal -1 0 0
    outer loop
      vertex 0 4.5 22
      vertex 0 9.5 28.5
      vertex 0 4.5 13
    endloop
  endfacet
  facet normal -1 -0 0
    outer loop
      vertex 0 9.5 28.5
      vertex 0 4.5 22
      vertex 0 4.5 28.5
    endloop
  endfacet
  facet normal -0 0 1
    outer loop
      vertex 2.5 9.5 31
      vertex 10 4.5 31
      vertex 10 9.5 31
    endloop
  endfacet
  facet normal 0 0 1
    outer loop
      vertex 10 4.5 31
      vertex 2.5 9.5 31
      vertex 2.5 4.5 31
    endloop
  endfacet
  facet normal 0 1 0
    outer loop
      vertex 2.35 9.5 17.5
      vertex 2.55172 9.5 16.4859
      vertex 0.598336 9.5 17.5
    endloop
  endfacet
  facet normal 0 1 -0
    outer loop
      vertex 6.39058 9.5 21.7798
      vertex 2.5 9.5 31
      vertex 10 9.5 31
    endloop
  endfacet
  facet normal 0 1 -0
    outer loop
      vertex 2.75 9.5 21.3971
      vertex 3.16414e-15 9.5 28.5
      vertex 4.52962 9.5 21.9753
    endloop
  endfacet
  facet normal 0 1 0
    outer loop
      vertex 2.5 9.5 31
      vertex 4.52962 9.5 21.9753
      vertex 3.16414e-15 9.5 28.5
    endloop
  endfacet
  facet normal 0 1 0
    outer loop
      vertex 2.5 9.5 31
      vertex 6.39058 9.5 21.7798
      vertex 4.52962 9.5 21.9753
    endloop
  endfacet
  facet normal 0 1 0
    outer loop
      vertex 10 9.5 31
      vertex 8.01109 9.5 20.8442
      vertex 6.39058 9.5 21.7798
    endloop
  endfacet
  facet normal 0 1 0
    outer loop
      vertex 10 9.5 31
      vertex 9.11095 9.5 19.3303
      vertex 8.01109 9.5 20.8442
    endloop
  endfacet
  facet normal 0 1 0
    outer loop
      vertex 10 9.5 31
      vertex 9.5 9.5 17.5
      vertex 9.11095 9.5 19.3303
    endloop
  endfacet
  facet normal 0 1 0
    outer loop
      vertex 9.5 9.5 17.5
      vertex 7.44828 9.5 16.4859
      vertex 7.65 9.5 17.5
    endloop
  endfacet
  facet normal 0 1 0
    outer loop
      vertex 9.5 9.5 17.5
      vertex 6.87383 9.5 15.6262
      vertex 7.44828 9.5 16.4859
    endloop
  endfacet
  facet normal 0 1 0
    outer loop
      vertex 6.01411 9.5 15.0517
      vertex 10 9.5 2.5
      vertex 5 9.5 14.85
    endloop
  endfacet
  facet normal 0 1 0
    outer loop
      vertex 6.87383 9.5 15.6262
      vertex 10 9.5 2.5
      vertex 6.01411 9.5 15.0517
    endloop
  endfacet
  facet normal 0 1 0
    outer loop
      vertex 9.5 9.5 17.5
      vertex 10 9.5 2.5
      vertex 6.87383 9.5 15.6262
    endloop
  endfacet
  facet normal 0 1 -0
    outer loop
      vertex 10 9.5 2.5
      vertex 9.5 9.5 17.5
      vertex 10 9.5 31
    endloop
  endfacet
  facet normal 0 1 0
    outer loop
      vertex 3.16414e-15 9.5 28.5
      vertex 2.75 9.5 21.3971
      vertex 0 9.5 28.5
    endloop
  endfacet
  facet normal 0 1 -0
    outer loop
      vertex 1.35942 9.5 20.145
      vertex 0 9.5 28.5
      vertex 2.75 9.5 21.3971
    endloop
  endfacet
  facet normal 0 1 -0
    outer loop
      vertex 0.598336 9.5 18.4356
      vertex 0 9.5 28.5
      vertex 1.35942 9.5 20.145
    endloop
  endfacet
  facet normal 0 1 -0
    outer loop
      vertex 0.598336 9.5 17.5
      vertex 0 9.5 28.5
      vertex 0.598336 9.5 18.4356
    endloop
  endfacet
  facet normal 0 1 0
    outer loop
      vertex 3.12617 9.5 15.6262
      vertex 0.598336 9.5 17.5
      vertex 2.55172 9.5 16.4859
    endloop
  endfacet
  facet normal 0 1 0
    outer loop
      vertex 0 9.5 2.5
      vertex 5 9.5 14.85
      vertex 10 9.5 2.5
    endloop
  endfacet
  facet normal 0 1 0
    outer loop
      vertex 5 9.5 14.85
      vertex 0 9.5 2.5
      vertex 3.98589 9.5 15.0517
    endloop
  endfacet
  facet normal 0 1 0
    outer loop
      vertex 3.98589 9.5 15.0517
      vertex 0 9.5 2.5
      vertex 3.12617 9.5 15.6262
    endloop
  endfacet
  facet normal 0 1 0
    outer loop
      vertex 0.598336 9.5 17.5
      vertex 0 9.5 2.5
      vertex 0 9.5 28.5
    endloop
  endfacet
  facet normal 0 1 0
    outer loop
      vertex 3.12617 9.5 15.6262
      vertex 0 9.5 2.5
      vertex 0.598336 9.5 17.5
    endloop
  endfacet
  facet normal -0 0 1
    outer loop
      vertex 10 60 2.5
      vertex 43 55 2.5
      vertex 43 60 2.5
    endloop
  endfacet
  facet normal 0 0 1
    outer loop
      vertex 10 60 2.5
      vertex 10 55 2.5
      vertex 43 55 2.5
    endloop
  endfacet
  facet normal 0 0 1
    outer loop
      vertex 0 29.5 2.5
      vertex 10 55 2.5
      vertex 10 60 2.5
    endloop
  endfacet
  facet normal 0 0 1
    outer loop
      vertex 10 55 2.5
      vertex 8.25 29.5 2.5
      vertex 10 9.5 2.5
    endloop
  endfacet
  facet normal 0 0 1
    outer loop
      vertex 10 55 2.5
      vertex 8.11679 30.1697 2.5
      vertex 8.25 29.5 2.5
    endloop
  endfacet
  facet normal 0 0 1
    outer loop
      vertex 10 55 2.5
      vertex 7.73744 30.7374 2.5
      vertex 8.11679 30.1697 2.5
    endloop
  endfacet
  facet normal 0 0 1
    outer loop
      vertex 10 55 2.5
      vertex 7.1697 31.1168 2.5
      vertex 7.73744 30.7374 2.5
    endloop
  endfacet
  facet normal 0 0 1
    outer loop
      vertex 10 55 2.5
      vertex 6.5 31.25 2.5
      vertex 7.1697 31.1168 2.5
    endloop
  endfacet
  facet normal 0 0 1
    outer loop
      vertex 10 55 2.5
      vertex 5.8303 31.1168 2.5
      vertex 6.5 31.25 2.5
    endloop
  endfacet
  facet normal 0 0 1
    outer loop
      vertex 10 55 2.5
      vertex 0 29.5 2.5
      vertex 5.8303 31.1168 2.5
    endloop
  endfacet
  facet normal 0 0 1
    outer loop
      vertex 5.8303 31.1168 2.5
      vertex 0 29.5 2.5
      vertex 5.26256 30.7374 2.5
    endloop
  endfacet
  facet normal 0 0 1
    outer loop
      vertex 5.26256 30.7374 2.5
      vertex 0 29.5 2.5
      vertex 4.88321 30.1697 2.5
    endloop
  endfacet
  facet normal 0 0 1
    outer loop
      vertex 4.88321 30.1697 2.5
      vertex 0 29.5 2.5
      vertex 4.75 29.5 2.5
    endloop
  endfacet
  facet normal -0 0 1
    outer loop
      vertex 8.11679 28.8303 2.5
      vertex 10 9.5 2.5
      vertex 8.25 29.5 2.5
    endloop
  endfacet
  facet normal -0 0 1
    outer loop
      vertex 7.73744 28.2626 2.5
      vertex 10 9.5 2.5
      vertex 8.11679 28.8303 2.5
    endloop
  endfacet
  facet normal -0 0 1
    outer loop
      vertex 7.1697 27.8832 2.5
      vertex 10 9.5 2.5
      vertex 7.73744 28.2626 2.5
    endloop
  endfacet
  facet normal -0 0 1
    outer loop
      vertex 6.5 27.75 2.5
      vertex 10 9.5 2.5
      vertex 7.1697 27.8832 2.5
    endloop
  endfacet
  facet normal 0 0 1
    outer loop
      vertex 0 9.5 2.5
      vertex 6.5 27.75 2.5
      vertex 5.8303 27.8832 2.5
    endloop
  endfacet
  facet normal 0 0 1
    outer loop
      vertex 0 29.5 2.5
      vertex 5.8303 27.8832 2.5
      vertex 5.26256 28.2626 2.5
    endloop
  endfacet
  facet normal 0 0 1
    outer loop
      vertex 0 29.5 2.5
      vertex 5.26256 28.2626 2.5
      vertex 4.88321 28.8303 2.5
    endloop
  endfacet
  facet normal -0 0 1
    outer loop
      vertex 0 29.5 2.5
      vertex 4.88321 28.8303 2.5
      vertex 4.75 29.5 2.5
    endloop
  endfacet
  facet normal 0 0 1
    outer loop
      vertex 5.8303 27.8832 2.5
      vertex 0 29.5 2.5
      vertex 0 9.5 2.5
    endloop
  endfacet
  facet normal 0 0 1
    outer loop
      vertex 6.5 27.75 2.5
      vertex 0 9.5 2.5
      vertex 10 9.5 2.5
    endloop
  endfacet
  facet normal 0 0 1
    outer loop
      vertex 48.1168 28.8303 2.5
      vertex 53 29.5 2.5
      vertex 48.25 29.5 2.5
    endloop
  endfacet
  facet normal 0 0 1
    outer loop
      vertex 53 29.5 2.5
      vertex 48.1168 30.1697 2.5
      vertex 48.25 29.5 2.5
    endloop
  endfacet
  facet normal 0 0 1
    outer loop
      vertex 53 29.5 2.5
      vertex 47.7374 30.7374 2.5
      vertex 48.1168 30.1697 2.5
    endloop
  endfacet
  facet normal 0 0 1
    outer loop
      vertex 53 29.5 2.5
      vertex 47.1697 31.1168 2.5
      vertex 47.7374 30.7374 2.5
    endloop
  endfacet
  facet normal 0 0 1
    outer loop
      vertex 45.2626 30.7374 2.5
      vertex 43 55 2.5
      vertex 44.8832 30.1697 2.5
    endloop
  endfacet
  facet normal 0 0 1
    outer loop
      vertex 45.8303 31.1168 2.5
      vertex 43 55 2.5
      vertex 45.2626 30.7374 2.5
    endloop
  endfacet
  facet normal 0 0 1
    outer loop
      vertex 46.5 31.25 2.5
      vertex 43 55 2.5
      vertex 45.8303 31.1168 2.5
    endloop
  endfacet
  facet normal 0 0 1
    outer loop
      vertex 47.1697 31.1168 2.5
      vertex 43 55 2.5
      vertex 46.5 31.25 2.5
    endloop
  endfacet
  facet normal 0 0 1
    outer loop
      vertex 53 29.5 2.5
      vertex 43 55 2.5
      vertex 47.1697 31.1168 2.5
    endloop
  endfacet
  facet normal -0 0 1
    outer loop
      vertex 43 55 2.5
      vertex 53 29.5 2.5
      vertex 43 60 2.5
    endloop
  endfacet
  facet normal 0 0 1
    outer loop
      vertex 47.7374 28.2626 2.5
      vertex 53 29.5 2.5
      vertex 48.1168 28.8303 2.5
    endloop
  endfacet
  facet normal 0 0 1
    outer loop
      vertex 47.1697 27.8832 2.5
      vertex 53 29.5 2.5
      vertex 47.7374 28.2626 2.5
    endloop
  endfacet
  facet normal 0 0 1
    outer loop
      vertex 53 29.5 2.5
      vertex 47.1697 27.8832 2.5
      vertex 53 9.5 2.5
    endloop
  endfacet
  facet normal -0 0 1
    outer loop
      vertex 46.5 27.75 2.5
      vertex 53 9.5 2.5
      vertex 47.1697 27.8832 2.5
    endloop
  endfacet
  facet normal 0 0 1
    outer loop
      vertex 43 9.5 2.5
      vertex 46.5 27.75 2.5
      vertex 45.8303 27.8832 2.5
    endloop
  endfacet
  facet normal 0 0 1
    outer loop
      vertex 43 9.5 2.5
      vertex 45.8303 27.8832 2.5
      vertex 45.2626 28.2626 2.5
    endloop
  endfacet
  facet normal 0 0 1
    outer loop
      vertex 43 9.5 2.5
      vertex 45.2626 28.2626 2.5
      vertex 44.8832 28.8303 2.5
    endloop
  endfacet
  facet normal 0 0 1
    outer loop
      vertex 44.8832 30.1697 2.5
      vertex 43 55 2.5
      vertex 44.75 29.5 2.5
    endloop
  endfacet
  facet normal 0 0 1
    outer loop
      vertex 46.5 27.75 2.5
      vertex 43 9.5 2.5
      vertex 53 9.5 2.5
    endloop
  endfacet
  facet normal 0 0 1
    outer loop
      vertex 44.75 29.5 2.5
      vertex 43 9.5 2.5
      vertex 44.8832 28.8303 2.5
    endloop
  endfacet
  facet normal 0 0 1
    outer loop
      vertex 43 9.5 2.5
      vertex 44.75 29.5 2.5
      vertex 43 55 2.5
    endloop
  endfacet
  facet normal -0 0 1
    outer loop
      vertex 35.51 4.5 2.5
      vertex 48.5 0 2.5
      vertex 53 4.5 2.5
    endloop
  endfacet
  facet normal -0 0 1
    outer loop
      vertex 35.5 4.49 2.5
      vertex 48.5 0 2.5
      vertex 35.51 4.5 2.5
    endloop
  endfacet
  facet normal -0 0 1
    outer loop
      vertex 17.5 4.49 2.5
      vertex 48.5 0 2.5
      vertex 35.5 4.49 2.5
    endloop
  endfacet
  facet normal 0 0 1
    outer loop
      vertex 17.5 4.49 2.5
      vertex 4.5 0 2.5
      vertex 48.5 0 2.5
    endloop
  endfacet
  facet normal 0 0 1
    outer loop
      vertex 17.49 4.5 2.5
      vertex 4.5 0 2.5
      vertex 17.5 4.49 2.5
    endloop
  endfacet
  facet normal 0 -0 1
    outer loop
      vertex 4.5 0 2.5
      vertex 17.49 4.5 2.5
      vertex 0 4.5 2.5
    endloop
  endfacet
  facet normal 0 -0.707107 0.707107
    outer loop
      vertex 8.75 3.5 21
      vertex 8.75 4.5 22
      vertex 0 4.5 22
    endloop
  endfacet
  facet normal 0 -0.707107 0.707107
    outer loop
      vertex 8.75 4.5 22
      vertex 8.75 3.5 21
      vertex 17.49 4.5 22
    endloop
  endfacet
  facet normal 0 -0.707107 0.707107
    outer loop
      vertex 8.75 3.5 21
      vertex 0 4.5 22
      vertex 0 3.5 21
    endloop
  endfacet
  facet normal 0 -0.707107 0.707107
    outer loop
      vertex 17.5 3.5 21
      vertex 17.49 4.5 22
      vertex 8.75 3.5 21
    endloop
  endfacet
  facet normal 1.26876e-13 -0.707107 0.707107
    outer loop
      vertex 17.49 4.5 22
      vertex 17.5 3.5 21
      vertex 17.5 4.49 21.99
    endloop
  endfacet
  facet normal 0 -0.707107 -0.707107
    outer loop
      vertex 8.75 4.5 13
      vertex 8.75 3.5 14
      vertex 0 3.5 14
    endloop
  endfacet
  facet normal -0 -0.707107 -0.707107
    outer loop
      vertex 17.49 4.5 13
      vertex 8.75 3.5 14
      vertex 8.75 4.5 13
    endloop
  endfacet
  facet normal -0 -0.707107 -0.707107
    outer loop
      vertex 8.75 4.5 13
      vertex 0 3.5 14
      vertex 0 4.5 13
    endloop
  endfacet
  facet normal 0 -0.707107 -0.707107
    outer loop
      vertex 8.75 3.5 14
      vertex 17.49 4.5 13
      vertex 17.5 3.5 14
    endloop
  endfacet
  facet normal 0 -0.707107 -0.707107
    outer loop
      vertex 17.5 3.5 14
      vertex 17.49 4.5 13
      vertex 17.5 4.49 13.01
    endloop
  endfacet
  facet normal 1 -0 0
    outer loop
      vertex 17.5 3.5 21
      vertex 17.5 4.49 13.01
      vertex 17.5 4.49 21.99
    endloop
  endfacet
  facet normal 1 0 0
    outer loop
      vertex 17.5 4.49 13.01
      vertex 17.5 3.5 21
      vertex 17.5 3.5 14
    endloop
  endfacet
  facet normal 0 -1 0
    outer loop
      vertex 5 3.5 20.15
      vertex 8.75 3.5 21
      vertex 0 3.5 21
    endloop
  endfacet
  facet normal 0 -1 0
    outer loop
      vertex 6.01411 3.5 19.9483
      vertex 8.75 3.5 21
      vertex 5 3.5 20.15
    endloop
  endfacet
  facet normal 0 -1 0
    outer loop
      vertex 0 3.5 21
      vertex 3.98589 3.5 19.9483
      vertex 5 3.5 20.15
    endloop
  endfacet
  facet normal 0 -1 0
    outer loop
      vertex 0 3.5 21
      vertex 3.12617 3.5 19.3738
      vertex 3.98589 3.5 19.9483
    endloop
  endfacet
  facet normal 0 -1 0
    outer loop
      vertex 0 3.5 21
      vertex 2.55172 3.5 18.5141
      vertex 3.12617 3.5 19.3738
    endloop
  endfacet
  facet normal 0 -1 0
    outer loop
      vertex 0 3.5 21
      vertex 2.35 3.5 17.5
      vertex 2.55172 3.5 18.5141
    endloop
  endfacet
  facet normal 0 -1 0
    outer loop
      vertex 0 3.5 14
      vertex 2.35 3.5 17.5
      vertex 0 3.5 21
    endloop
  endfacet
  facet normal 0 -1 -0
    outer loop
      vertex 3.98589 3.5 15.0517
      vertex 0 3.5 14
      vertex 5 3.5 14.85
    endloop
  endfacet
  facet normal 0 -1 -0
    outer loop
      vertex 3.12617 3.5 15.6262
      vertex 0 3.5 14
      vertex 3.98589 3.5 15.0517
    endloop
  endfacet
  facet normal 0 -1 -0
    outer loop
      vertex 2.55172 3.5 16.4859
      vertex 0 3.5 14
      vertex 3.12617 3.5 15.6262
    endloop
  endfacet
  facet normal 0 -1 -0
    outer loop
      vertex 2.35 3.5 17.5
      vertex 0 3.5 14
      vertex 2.55172 3.5 16.4859
    endloop
  endfacet
  facet normal 0 -1 0
    outer loop
      vertex 6.87383 3.5 19.3738
      vertex 8.75 3.5 21
      vertex 6.01411 3.5 19.9483
    endloop
  endfacet
  facet normal 0 -1 0
    outer loop
      vertex 7.44828 3.5 18.5141
      vertex 8.75 3.5 21
      vertex 6.87383 3.5 19.3738
    endloop
  endfacet
  facet normal 0 -1 0
    outer loop
      vertex 7.65 3.5 17.5
      vertex 8.75 3.5 21
      vertex 7.44828 3.5 18.5141
    endloop
  endfacet
  facet normal 0 -1 -0
    outer loop
      vertex 8.75 3.5 21
      vertex 7.65 3.5 17.5
      vertex 17.5 3.5 21
    endloop
  endfacet
  facet normal 0 -1 0
    outer loop
      vertex 8.75 3.5 14
      vertex 7.65 3.5 17.5
      vertex 7.44828 3.5 16.4859
    endloop
  endfacet
  facet normal 0 -1 0
    outer loop
      vertex 8.75 3.5 14
      vertex 7.44828 3.5 16.4859
      vertex 6.87383 3.5 15.6262
    endloop
  endfacet
  facet normal 0 -1 0
    outer loop
      vertex 8.75 3.5 14
      vertex 6.87383 3.5 15.6262
      vertex 6.01411 3.5 15.0517
    endloop
  endfacet
  facet normal 0 -1 0
    outer loop
      vertex 8.75 3.5 14
      vertex 5 3.5 14.85
      vertex 0 3.5 14
    endloop
  endfacet
  facet normal 0 -1 0
    outer loop
      vertex 8.75 3.5 14
      vertex 6.01411 3.5 15.0517
      vertex 5 3.5 14.85
    endloop
  endfacet
  facet normal 0 -1 0
    outer loop
      vertex 17.5 3.5 14
      vertex 7.65 3.5 17.5
      vertex 8.75 3.5 14
    endloop
  endfacet
  facet normal 0 -1 0
    outer loop
      vertex 7.65 3.5 17.5
      vertex 17.5 3.5 14
      vertex 17.5 3.5 21
    endloop
  endfacet
  facet normal -0.980785 0 0.195093
    outer loop
      vertex 7.44828 3.5 16.4859
      vertex 7.65 9.5 17.5
      vertex 7.44828 9.5 16.4859
    endloop
  endfacet
  facet normal -0.980785 0 0.195093
    outer loop
      vertex 7.65 9.5 17.5
      vertex 7.44828 3.5 16.4859
      vertex 7.65 3.5 17.5
    endloop
  endfacet
  facet normal 0.980785 -0 0.195093
    outer loop
      vertex 2.35 3.5 17.5
      vertex 2.55172 9.5 16.4859
      vertex 2.35 9.5 17.5
    endloop
  endfacet
  facet normal 0.980785 0 0.195093
    outer loop
      vertex 2.55172 9.5 16.4859
      vertex 2.35 3.5 17.5
      vertex 2.55172 3.5 16.4859
    endloop
  endfacet
  facet normal -0.195073 0 0.980789
    outer loop
      vertex 5 9.5 14.85
      vertex 6.01411 3.5 15.0517
      vertex 6.01411 9.5 15.0517
    endloop
  endfacet
  facet normal -0.195073 0 0.980789
    outer loop
      vertex 6.01411 3.5 15.0517
      vertex 5 9.5 14.85
      vertex 5 3.5 14.85
    endloop
  endfacet
  facet normal -0.831462 0 0.555581
    outer loop
      vertex 6.87383 3.5 15.6262
      vertex 7.44828 9.5 16.4859
      vertex 6.87383 9.5 15.6262
    endloop
  endfacet
  facet normal -0.831462 0 0.555581
    outer loop
      vertex 7.44828 9.5 16.4859
      vertex 6.87383 3.5 15.6262
      vertex 7.44828 3.5 16.4859
    endloop
  endfacet
  facet normal -0.195073 0 -0.980789
    outer loop
      vertex 5 3.5 20.15
      vertex 6.01411 9.5 19.9483
      vertex 6.01411 3.5 19.9483
    endloop
  endfacet
  facet normal -0.195073 0 -0.980789
    outer loop
      vertex 6.01411 9.5 19.9483
      vertex 5 3.5 20.15
      vertex 5 9.5 20.15
    endloop
  endfacet
  facet normal 0.195073 0 -0.980789
    outer loop
      vertex 3.98589 3.5 19.9483
      vertex 5 9.5 20.15
      vertex 5 3.5 20.15
    endloop
  endfacet
  facet normal 0.195073 0 -0.980789
    outer loop
      vertex 5 9.5 20.15
      vertex 3.98589 3.5 19.9483
      vertex 3.98589 9.5 19.9483
    endloop
  endfacet
  facet normal -0.555606 0 0.831446
    outer loop
      vertex 6.01411 9.5 15.0517
      vertex 6.87383 3.5 15.6262
      vertex 6.87383 9.5 15.6262
    endloop
  endfacet
  facet normal -0.555606 0 0.831446
    outer loop
      vertex 6.87383 3.5 15.6262
      vertex 6.01411 9.5 15.0517
      vertex 6.01411 3.5 15.0517
    endloop
  endfacet
  facet normal 0.195073 0 0.980789
    outer loop
      vertex 3.98589 9.5 15.0517
      vertex 5 3.5 14.85
      vertex 5 9.5 14.85
    endloop
  endfacet
  facet normal 0.195073 0 0.980789
    outer loop
      vertex 5 3.5 14.85
      vertex 3.98589 9.5 15.0517
      vertex 3.98589 3.5 15.0517
    endloop
  endfacet
  facet normal 0.555606 0 0.831446
    outer loop
      vertex 3.12617 9.5 15.6262
      vertex 3.98589 3.5 15.0517
      vertex 3.98589 9.5 15.0517
    endloop
  endfacet
  facet normal 0.555606 0 0.831446
    outer loop
      vertex 3.98589 3.5 15.0517
      vertex 3.12617 9.5 15.6262
      vertex 3.12617 3.5 15.6262
    endloop
  endfacet
  facet normal 0.980785 0 -0.195093
    outer loop
      vertex 2.55172 3.5 18.5141
      vertex 2.35 9.5 17.5
      vertex 2.55172 9.5 18.5141
    endloop
  endfacet
  facet normal 0.980785 0 -0.195093
    outer loop
      vertex 2.35 9.5 17.5
      vertex 2.55172 3.5 18.5141
      vertex 2.35 3.5 17.5
    endloop
  endfacet
  facet normal 0.555606 0 -0.831446
    outer loop
      vertex 3.12617 3.5 19.3738
      vertex 3.98589 9.5 19.9483
      vertex 3.98589 3.5 19.9483
    endloop
  endfacet
  facet normal 0.555606 0 -0.831446
    outer loop
      vertex 3.98589 9.5 19.9483
      vertex 3.12617 3.5 19.3738
      vertex 3.12617 9.5 19.3738
    endloop
  endfacet
  facet normal 0.831462 0 -0.555581
    outer loop
      vertex 3.12617 3.5 19.3738
      vertex 2.55172 9.5 18.5141
      vertex 3.12617 9.5 19.3738
    endloop
  endfacet
  facet normal 0.831462 0 -0.555581
    outer loop
      vertex 2.55172 9.5 18.5141
      vertex 3.12617 3.5 19.3738
      vertex 2.55172 3.5 18.5141
    endloop
  endfacet
  facet normal 0.831462 -0 0.555581
    outer loop
      vertex 2.55172 3.5 16.4859
      vertex 3.12617 9.5 15.6262
      vertex 2.55172 9.5 16.4859
    endloop
  endfacet
  facet normal 0.831462 0 0.555581
    outer loop
      vertex 3.12617 9.5 15.6262
      vertex 2.55172 3.5 16.4859
      vertex 3.12617 3.5 15.6262
    endloop
  endfacet
  facet normal -0.831462 0 -0.555581
    outer loop
      vertex 7.44828 3.5 18.5141
      vertex 6.87383 9.5 19.3738
      vertex 7.44828 9.5 18.5141
    endloop
  endfacet
  facet normal -0.831462 -0 -0.555581
    outer loop
      vertex 6.87383 9.5 19.3738
      vertex 7.44828 3.5 18.5141
      vertex 6.87383 3.5 19.3738
    endloop
  endfacet
  facet normal -0.555606 0 -0.831446
    outer loop
      vertex 6.01411 3.5 19.9483
      vertex 6.87383 9.5 19.3738
      vertex 6.87383 3.5 19.3738
    endloop
  endfacet
  facet normal -0.555606 0 -0.831446
    outer loop
      vertex 6.87383 9.5 19.3738
      vertex 6.01411 3.5 19.9483
      vertex 6.01411 9.5 19.9483
    endloop
  endfacet
  facet normal -0.980785 0 -0.195093
    outer loop
      vertex 7.65 3.5 17.5
      vertex 7.44828 9.5 18.5141
      vertex 7.65 9.5 17.5
    endloop
  endfacet
  facet normal -0.980785 -0 -0.195093
    outer loop
      vertex 7.44828 9.5 18.5141
      vertex 7.65 3.5 17.5
      vertex 7.44828 3.5 18.5141
    endloop
  endfacet
  facet normal 0 1 0
    outer loop
      vertex 6.39058 9.5 21.7798
      vertex 6.01411 9.5 19.9483
      vertex 5 9.5 20.15
    endloop
  endfacet
  facet normal 0 1 0
    outer loop
      vertex 8.01109 9.5 20.8442
      vertex 6.87383 9.5 19.3738
      vertex 6.01411 9.5 19.9483
    endloop
  endfacet
  facet normal 0 1 0
    outer loop
      vertex 9.11095 9.5 19.3303
      vertex 6.87383 9.5 19.3738
      vertex 8.01109 9.5 20.8442
    endloop
  endfacet
  facet normal 0 1 0
    outer loop
      vertex 9.11095 9.5 19.3303
      vertex 7.44828 9.5 18.5141
      vertex 6.87383 9.5 19.3738
    endloop
  endfacet
  facet normal 0 1 0
    outer loop
      vertex 9.5 9.5 17.5
      vertex 7.44828 9.5 18.5141
      vertex 9.11095 9.5 19.3303
    endloop
  endfacet
  facet normal 0 1 0
    outer loop
      vertex 7.44828 9.5 18.5141
      vertex 9.5 9.5 17.5
      vertex 7.65 9.5 17.5
    endloop
  endfacet
  facet normal 0 1 -0
    outer loop
      vertex 5 9.5 20.15
      vertex 4.52962 9.5 21.9753
      vertex 6.39058 9.5 21.7798
    endloop
  endfacet
  facet normal 0 1 0
    outer loop
      vertex 6.01411 9.5 19.9483
      vertex 6.39058 9.5 21.7798
      vertex 8.01109 9.5 20.8442
    endloop
  endfacet
  facet normal 0 1 0
    outer loop
      vertex 3.98589 9.5 19.9483
      vertex 4.52962 9.5 21.9753
      vertex 5 9.5 20.15
    endloop
  endfacet
  facet normal 0 1 0
    outer loop
      vertex 4.52962 9.5 21.9753
      vertex 3.98589 9.5 19.9483
      vertex 2.75 9.5 21.3971
    endloop
  endfacet
  facet normal 0 1 -0
    outer loop
      vertex 3.12617 9.5 19.3738
      vertex 2.75 9.5 21.3971
      vertex 3.98589 9.5 19.9483
    endloop
  endfacet
  facet normal 0 1 0
    outer loop
      vertex 2.75 9.5 21.3971
      vertex 3.12617 9.5 19.3738
      vertex 1.35942 9.5 20.145
    endloop
  endfacet
  facet normal 0 1 -0
    outer loop
      vertex 2.55172 9.5 18.5141
      vertex 1.35942 9.5 20.145
      vertex 3.12617 9.5 19.3738
    endloop
  endfacet
  facet normal 0 1 0
    outer loop
      vertex 2.55172 9.5 18.5141
      vertex 0.598336 9.5 18.4356
      vertex 1.35942 9.5 20.145
    endloop
  endfacet
  facet normal 0 1 -0
    outer loop
      vertex 2.35 9.5 17.5
      vertex 0.598336 9.5 18.4356
      vertex 2.55172 9.5 18.5141
    endloop
  endfacet
  facet normal 0 1 0
    outer loop
      vertex 0.598336 9.5 18.4356
      vertex 2.35 9.5 17.5
      vertex 0.598336 9.5 17.5
    endloop
  endfacet
  facet normal 0.707107 -0 0.707107
    outer loop
      vertex 50.5 4.5 31
      vertex 53 9.5 28.5
      vertex 50.5 9.5 31
    endloop
  endfacet
  facet normal 0.707107 0 0.707107
    outer loop
      vertex 53 9.5 28.5
      vertex 50.5 4.5 31
      vertex 53 4.5 28.5
    endloop
  endfacet
  facet normal 1 0 0
    outer loop
      vertex 53 4.5 22
      vertex 53 9.5 28.5
      vertex 53 4.5 28.5
    endloop
  endfacet
  facet normal 1 -0 0
    outer loop
      vertex 53 9.5 2.5
      vertex 53 29.5 0
      vertex 53 29.5 2.5
    endloop
  endfacet
  facet normal 1 0 0
    outer loop
      vertex 53 4.5 13
      vertex 53 9.5 28.5
      vertex 53 4.5 22
    endloop
  endfacet
  facet normal 1 0 0
    outer loop
      vertex 53 9.5 28.5
      vertex 53 4.5 13
      vertex 53 9.5 2.5
    endloop
  endfacet
  facet normal 1 0 0
    outer loop
      vertex 53 4.5 2.5
      vertex 53 9.5 2.5
      vertex 53 4.5 13
    endloop
  endfacet
  facet normal 1 0 0
    outer loop
      vertex 53 4.5 0
      vertex 53 9.5 2.5
      vertex 53 4.5 2.5
    endloop
  endfacet
  facet normal 1 0 0
    outer loop
      vertex 53 9.5 2.5
      vertex 53 4.5 0
      vertex 53 29.5 0
    endloop
  endfacet
  facet normal 1 -0 0
    outer loop
      vertex 53 3.5 21
      vertex 53 4.5 13
      vertex 53 4.5 22
    endloop
  endfacet
  facet normal 1 0 0
    outer loop
      vertex 53 4.5 13
      vertex 53 3.5 21
      vertex 53 3.5 14
    endloop
  endfacet
  facet normal -0 0 1
    outer loop
      vertex 43 9.5 31
      vertex 50.5 4.5 31
      vertex 50.5 9.5 31
    endloop
  endfacet
  facet normal 0 0 1
    outer loop
      vertex 50.5 4.5 31
      vertex 43 9.5 31
      vertex 43 4.5 31
    endloop
  endfacet
  facet normal 0 1 0
    outer loop
      vertex 53 9.5 28.5
      vertex 50.25 9.5 21.3971
      vertex 48.4704 9.5 21.9753
    endloop
  endfacet
  facet normal 0 1 0
    outer loop
      vertex 53 9.5 28.5
      vertex 51.6406 9.5 20.145
      vertex 50.25 9.5 21.3971
    endloop
  endfacet
  facet normal 0 1 0
    outer loop
      vertex 53 9.5 28.5
      vertex 52.4017 9.5 18.4356
      vertex 51.6406 9.5 20.145
    endloop
  endfacet
  facet normal 0 1 0
    outer loop
      vertex 53 9.5 28.5
      vertex 52.4017 9.5 17.5
      vertex 52.4017 9.5 18.4356
    endloop
  endfacet
  facet normal 0 1 0
    outer loop
      vertex 52.4017 9.5 17.5
      vertex 50.4483 9.5 16.4859
      vertex 50.65 9.5 17.5
    endloop
  endfacet
  facet normal 0 1 0
    outer loop
      vertex 52.4017 9.5 17.5
      vertex 49.8738 9.5 15.6262
      vertex 50.4483 9.5 16.4859
    endloop
  endfacet
  facet normal 0 1 0
    outer loop
      vertex 49.0141 9.5 15.0517
      vertex 53 9.5 2.5
      vertex 48 9.5 14.85
    endloop
  endfacet
  facet normal 0 1 0
    outer loop
      vertex 49.8738 9.5 15.6262
      vertex 53 9.5 2.5
      vertex 49.0141 9.5 15.0517
    endloop
  endfacet
  facet normal 0 1 0
    outer loop
      vertex 52.4017 9.5 17.5
      vertex 53 9.5 2.5
      vertex 49.8738 9.5 15.6262
    endloop
  endfacet
  facet normal 0 1 -0
    outer loop
      vertex 53 9.5 2.5
      vertex 52.4017 9.5 17.5
      vertex 53 9.5 28.5
    endloop
  endfacet
  facet normal 0 1 0
    outer loop
      vertex 48.4704 9.5 21.9753
      vertex 50.5 9.5 31
      vertex 53 9.5 28.5
    endloop
  endfacet
  facet normal 0 1 0
    outer loop
      vertex 46.6094 9.5 21.7798
      vertex 50.5 9.5 31
      vertex 48.4704 9.5 21.9753
    endloop
  endfacet
  facet normal 0 1 0
    outer loop
      vertex 50.5 9.5 31
      vertex 46.6094 9.5 21.7798
      vertex 43 9.5 31
    endloop
  endfacet
  facet normal 0 1 -0
    outer loop
      vertex 44.9889 9.5 20.8442
      vertex 43 9.5 31
      vertex 46.6094 9.5 21.7798
    endloop
  endfacet
  facet normal 0 1 -0
    outer loop
      vertex 43.889 9.5 19.3303
      vertex 43 9.5 31
      vertex 44.9889 9.5 20.8442
    endloop
  endfacet
  facet normal 0 1 -0
    outer loop
      vertex 43.5 9.5 17.5
      vertex 43 9.5 31
      vertex 43.889 9.5 19.3303
    endloop
  endfacet
  facet normal 0 1 0
    outer loop
      vertex 46.1262 9.5 15.6262
      vertex 43.5 9.5 17.5
      vertex 45.5517 9.5 16.4859
    endloop
  endfacet
  facet normal 0 1 0
    outer loop
      vertex 43 9.5 2.5
      vertex 48 9.5 14.85
      vertex 53 9.5 2.5
    endloop
  endfacet
  facet normal 0 1 0
    outer loop
      vertex 48 9.5 14.85
      vertex 43 9.5 2.5
      vertex 46.9859 9.5 15.0517
    endloop
  endfacet
  facet normal 0 1 0
    outer loop
      vertex 46.9859 9.5 15.0517
      vertex 43 9.5 2.5
      vertex 46.1262 9.5 15.6262
    endloop
  endfacet
  facet normal 0 1 0
    outer loop
      vertex 43.5 9.5 17.5
      vertex 43 9.5 2.5
      vertex 43 9.5 31
    endloop
  endfacet
  facet normal 0 1 0
    outer loop
      vertex 46.1262 9.5 15.6262
      vertex 43 9.5 2.5
      vertex 43.5 9.5 17.5
    endloop
  endfacet
  facet normal 0 1 0
    outer loop
      vertex 45.35 9.5 17.5
      vertex 45.5517 9.5 16.4859
      vertex 43.5 9.5 17.5
    endloop
  endfacet
  facet normal 0 -0.707107 0.707107
    outer loop
      vertex 44.25 3.5 21
      vertex 44.25 4.5 22
      vertex 35.51 4.5 22
    endloop
  endfacet
  facet normal -1.26876e-13 -0.707107 0.707107
    outer loop
      vertex 35.5 3.5 21
      vertex 35.51 4.5 22
      vertex 35.5 4.49 21.99
    endloop
  endfacet
  facet normal 0 -0.707107 0.707107
    outer loop
      vertex 35.51 4.5 22
      vertex 35.5 3.5 21
      vertex 44.25 3.5 21
    endloop
  endfacet
  facet normal 0 -0.707107 0.707107
    outer loop
      vertex 44.25 4.5 22
      vertex 44.25 3.5 21
      vertex 53 4.5 22
    endloop
  endfacet
  facet normal 0 -0.707107 0.707107
    outer loop
      vertex 53 4.5 22
      vertex 44.25 3.5 21
      vertex 53 3.5 21
    endloop
  endfacet
  facet normal 0 -0.707107 -0.707107
    outer loop
      vertex 44.25 4.5 13
      vertex 44.25 3.5 14
      vertex 35.5 3.5 14
    endloop
  endfacet
  facet normal 0 -0.707107 -0.707107
    outer loop
      vertex 35.51 4.5 13
      vertex 35.5 3.5 14
      vertex 35.5 4.49 13.01
    endloop
  endfacet
  facet normal 0 -0.707107 -0.707107
    outer loop
      vertex 35.5 3.5 14
      vertex 35.51 4.5 13
      vertex 44.25 4.5 13
    endloop
  endfacet
  facet normal 0 -0.707107 -0.707107
    outer loop
      vertex 44.25 3.5 14
      vertex 44.25 4.5 13
      vertex 53 3.5 14
    endloop
  endfacet
  facet normal 0 -0.707107 -0.707107
    outer loop
      vertex 53 3.5 14
      vertex 44.25 4.5 13
      vertex 53 4.5 13
    endloop
  endfacet
  facet normal -1 0 0
    outer loop
      vertex 35.5 3.5 14
      vertex 35.5 4.49 21.99
      vertex 35.5 4.49 13.01
    endloop
  endfacet
  facet normal -1 0 0
    outer loop
      vertex 35.5 4.49 21.99
      vertex 35.5 3.5 14
      vertex 35.5 3.5 21
    endloop
  endfacet
  facet normal 0 -1 0
    outer loop
      vertex 45.35 3.5 17.5
      vertex 44.25 3.5 21
      vertex 35.5 3.5 21
    endloop
  endfacet
  facet normal 0 -1 0
    outer loop
      vertex 44.25 3.5 21
      vertex 48 3.5 20.15
      vertex 53 3.5 21
    endloop
  endfacet
  facet normal 0 -1 0
    outer loop
      vertex 44.25 3.5 21
      vertex 46.9859 3.5 19.9483
      vertex 48 3.5 20.15
    endloop
  endfacet
  facet normal 0 -1 0
    outer loop
      vertex 44.25 3.5 21
      vertex 46.1262 3.5 19.3738
      vertex 46.9859 3.5 19.9483
    endloop
  endfacet
  facet normal 0 -1 0
    outer loop
      vertex 44.25 3.5 21
      vertex 45.5517 3.5 18.5141
      vertex 46.1262 3.5 19.3738
    endloop
  endfacet
  facet normal 0 -1 0
    outer loop
      vertex 44.25 3.5 21
      vertex 45.35 3.5 17.5
      vertex 45.5517 3.5 18.5141
    endloop
  endfacet
  facet normal 0 -1 0
    outer loop
      vertex 35.5 3.5 14
      vertex 45.35 3.5 17.5
      vertex 35.5 3.5 21
    endloop
  endfacet
  facet normal 0 -1 -0
    outer loop
      vertex 45.35 3.5 17.5
      vertex 44.25 3.5 14
      vertex 45.5517 3.5 16.4859
    endloop
  endfacet
  facet normal 0 -1 -0
    outer loop
      vertex 45.5517 3.5 16.4859
      vertex 44.25 3.5 14
      vertex 46.1262 3.5 15.6262
    endloop
  endfacet
  facet normal 0 -1 -0
    outer loop
      vertex 46.1262 3.5 15.6262
      vertex 44.25 3.5 14
      vertex 46.9859 3.5 15.0517
    endloop
  endfacet
  facet normal 0 -1 0
    outer loop
      vertex 45.35 3.5 17.5
      vertex 35.5 3.5 14
      vertex 44.25 3.5 14
    endloop
  endfacet
  facet normal 0 -1 0
    outer loop
      vertex 49.0141 3.5 19.9483
      vertex 53 3.5 21
      vertex 48 3.5 20.15
    endloop
  endfacet
  facet normal 0 -1 0
    outer loop
      vertex 49.8738 3.5 19.3738
      vertex 53 3.5 21
      vertex 49.0141 3.5 19.9483
    endloop
  endfacet
  facet normal 0 -1 0
    outer loop
      vertex 50.4483 3.5 18.5141
      vertex 53 3.5 21
      vertex 49.8738 3.5 19.3738
    endloop
  endfacet
  facet normal 0 -1 0
    outer loop
      vertex 50.65 3.5 17.5
      vertex 53 3.5 21
      vertex 50.4483 3.5 18.5141
    endloop
  endfacet
  facet normal 0 -1 0
    outer loop
      vertex 53 3.5 14
      vertex 50.65 3.5 17.5
      vertex 50.4483 3.5 16.4859
    endloop
  endfacet
  facet normal 0 -1 -0
    outer loop
      vertex 46.9859 3.5 15.0517
      vertex 44.25 3.5 14
      vertex 48 3.5 14.85
    endloop
  endfacet
  facet normal 0 -1 0
    outer loop
      vertex 53 3.5 14
      vertex 48 3.5 14.85
      vertex 44.25 3.5 14
    endloop
  endfacet
  facet normal 0 -1 0
    outer loop
      vertex 50.65 3.5 17.5
      vertex 53 3.5 14
      vertex 53 3.5 21
    endloop
  endfacet
  facet normal 0 -1 0
    outer loop
      vertex 49.8738 3.5 15.6262
      vertex 53 3.5 14
      vertex 50.4483 3.5 16.4859
    endloop
  endfacet
  facet normal 0 -1 0
    outer loop
      vertex 49.0141 3.5 15.0517
      vertex 53 3.5 14
      vertex 49.8738 3.5 15.6262
    endloop
  endfacet
  facet normal 0 -1 0
    outer loop
      vertex 48 3.5 14.85
      vertex 53 3.5 14
      vertex 49.0141 3.5 15.0517
    endloop
  endfacet
  facet normal 0.980788 -0 0.195074
    outer loop
      vertex 45.35 3.5 17.5
      vertex 45.5517 9.5 16.4859
      vertex 45.35 9.5 17.5
    endloop
  endfacet
  facet normal 0.980788 0 0.195074
    outer loop
      vertex 45.5517 9.5 16.4859
      vertex 45.35 3.5 17.5
      vertex 45.5517 3.5 16.4859
    endloop
  endfacet
  facet normal -0.980788 0 0.195074
    outer loop
      vertex 50.4483 3.5 16.4859
      vertex 50.65 9.5 17.5
      vertex 50.4483 9.5 16.4859
    endloop
  endfacet
  facet normal -0.980788 0 0.195074
    outer loop
      vertex 50.65 9.5 17.5
      vertex 50.4483 3.5 16.4859
      vertex 50.65 3.5 17.5
    endloop
  endfacet
  facet normal 0.195074 0 0.980788
    outer loop
      vertex 46.9859 9.5 15.0517
      vertex 48 3.5 14.85
      vertex 48 9.5 14.85
    endloop
  endfacet
  facet normal 0.195074 0 0.980788
    outer loop
      vertex 48 3.5 14.85
      vertex 46.9859 9.5 15.0517
      vertex 46.9859 3.5 15.0517
    endloop
  endfacet
  facet normal 0.83144 -0 0.555615
    outer loop
      vertex 45.5517 3.5 16.4859
      vertex 46.1262 9.5 15.6262
      vertex 45.5517 9.5 16.4859
    endloop
  endfacet
  facet normal 0.83144 0 0.555615
    outer loop
      vertex 46.1262 9.5 15.6262
      vertex 45.5517 3.5 16.4859
      vertex 46.1262 3.5 15.6262
    endloop
  endfacet
  facet normal 0.195074 0 -0.980788
    outer loop
      vertex 46.9859 3.5 19.9483
      vertex 48 9.5 20.15
      vertex 48 3.5 20.15
    endloop
  endfacet
  facet normal 0.195074 0 -0.980788
    outer loop
      vertex 48 9.5 20.15
      vertex 46.9859 3.5 19.9483
      vertex 46.9859 9.5 19.9483
    endloop
  endfacet
  facet normal -0.195074 0 -0.980788
    outer loop
      vertex 48 3.5 20.15
      vertex 49.0141 9.5 19.9483
      vertex 49.0141 3.5 19.9483
    endloop
  endfacet
  facet normal -0.195074 0 -0.980788
    outer loop
      vertex 49.0141 9.5 19.9483
      vertex 48 3.5 20.15
      vertex 48 9.5 20.15
    endloop
  endfacet
  facet normal 0.555615 0 0.83144
    outer loop
      vertex 46.1262 9.5 15.6262
      vertex 46.9859 3.5 15.0517
      vertex 46.9859 9.5 15.0517
    endloop
  endfacet
  facet normal 0.555615 0 0.83144
    outer loop
      vertex 46.9859 3.5 15.0517
      vertex 46.1262 9.5 15.6262
      vertex 46.1262 3.5 15.6262
    endloop
  endfacet
  facet normal -0.195074 0 0.980788
    outer loop
      vertex 48 9.5 14.85
      vertex 49.0141 3.5 15.0517
      vertex 49.0141 9.5 15.0517
    endloop
  endfacet
  facet normal -0.195074 0 0.980788
    outer loop
      vertex 49.0141 3.5 15.0517
      vertex 48 9.5 14.85
      vertex 48 3.5 14.85
    endloop
  endfacet
  facet normal -0.555615 0 0.83144
    outer loop
      vertex 49.0141 9.5 15.0517
      vertex 49.8738 3.5 15.6262
      vertex 49.8738 9.5 15.6262
    endloop
  endfacet
  facet normal -0.555615 0 0.83144
    outer loop
      vertex 49.8738 3.5 15.6262
      vertex 49.0141 9.5 15.0517
      vertex 49.0141 3.5 15.0517
    endloop
  endfacet
  facet normal -0.980788 0 -0.195074
    outer loop
      vertex 50.65 3.5 17.5
      vertex 50.4483 9.5 18.5141
      vertex 50.65 9.5 17.5
    endloop
  endfacet
  facet normal -0.980788 -0 -0.195074
    outer loop
      vertex 50.4483 9.5 18.5141
      vertex 50.65 3.5 17.5
      vertex 50.4483 3.5 18.5141
    endloop
  endfacet
  facet normal -0.555615 0 -0.83144
    outer loop
      vertex 49.0141 3.5 19.9483
      vertex 49.8738 9.5 19.3738
      vertex 49.8738 3.5 19.3738
    endloop
  endfacet
  facet normal -0.555615 0 -0.83144
    outer loop
      vertex 49.8738 9.5 19.3738
      vertex 49.0141 3.5 19.9483
      vertex 49.0141 9.5 19.9483
    endloop
  endfacet
  facet normal -0.83144 0 -0.555615
    outer loop
      vertex 50.4483 3.5 18.5141
      vertex 49.8738 9.5 19.3738
      vertex 50.4483 9.5 18.5141
    endloop
  endfacet
  facet normal -0.83144 -0 -0.555615
    outer loop
      vertex 49.8738 9.5 19.3738
      vertex 50.4483 3.5 18.5141
      vertex 49.8738 3.5 19.3738
    endloop
  endfacet
  facet normal -0.83144 0 0.555615
    outer loop
      vertex 49.8738 3.5 15.6262
      vertex 50.4483 9.5 16.4859
      vertex 49.8738 9.5 15.6262
    endloop
  endfacet
  facet normal -0.83144 0 0.555615
    outer loop
      vertex 50.4483 9.5 16.4859
      vertex 49.8738 3.5 15.6262
      vertex 50.4483 3.5 16.4859
    endloop
  endfacet
  facet normal 0.83144 0 -0.555615
    outer loop
      vertex 46.1262 3.5 19.3738
      vertex 45.5517 9.5 18.5141
      vertex 46.1262 9.5 19.3738
    endloop
  endfacet
  facet normal 0.83144 0 -0.555615
    outer loop
      vertex 45.5517 9.5 18.5141
      vertex 46.1262 3.5 19.3738
      vertex 45.5517 3.5 18.5141
    endloop
  endfacet
  facet normal 0.555615 0 -0.83144
    outer loop
      vertex 46.1262 3.5 19.3738
      vertex 46.9859 9.5 19.9483
      vertex 46.9859 3.5 19.9483
    endloop
  endfacet
  facet normal 0.555615 0 -0.83144
    outer loop
      vertex 46.9859 9.5 19.9483
      vertex 46.1262 3.5 19.3738
      vertex 46.1262 9.5 19.3738
    endloop
  endfacet
  facet normal 0.980788 0 -0.195074
    outer loop
      vertex 45.5517 3.5 18.5141
      vertex 45.35 9.5 17.5
      vertex 45.5517 9.5 18.5141
    endloop
  endfacet
  facet normal 0.980788 0 -0.195074
    outer loop
      vertex 45.35 9.5 17.5
      vertex 45.5517 3.5 18.5141
      vertex 45.35 3.5 17.5
    endloop
  endfacet
  facet normal 0 1 -0
    outer loop
      vertex 49.0141 9.5 19.9483
      vertex 48.4704 9.5 21.9753
      vertex 50.25 9.5 21.3971
    endloop
  endfacet
  facet normal 0 1 0
    outer loop
      vertex 48.4704 9.5 21.9753
      vertex 48 9.5 20.15
      vertex 46.6094 9.5 21.7798
    endloop
  endfacet
  facet normal 0 1 -0
    outer loop
      vertex 46.9859 9.5 19.9483
      vertex 46.6094 9.5 21.7798
      vertex 48 9.5 20.15
    endloop
  endfacet
  facet normal 0 1 0
    outer loop
      vertex 49.8738 9.5 19.3738
      vertex 50.25 9.5 21.3971
      vertex 51.6406 9.5 20.145
    endloop
  endfacet
  facet normal 0 1 0
    outer loop
      vertex 48.4704 9.5 21.9753
      vertex 49.0141 9.5 19.9483
      vertex 48 9.5 20.15
    endloop
  endfacet
  facet normal 0 1 0
    outer loop
      vertex 50.25 9.5 21.3971
      vertex 49.8738 9.5 19.3738
      vertex 49.0141 9.5 19.9483
    endloop
  endfacet
  facet normal 0 1 0
    outer loop
      vertex 51.6406 9.5 20.145
      vertex 50.4483 9.5 18.5141
      vertex 49.8738 9.5 19.3738
    endloop
  endfacet
  facet normal 0 1 0
    outer loop
      vertex 52.4017 9.5 18.4356
      vertex 50.4483 9.5 18.5141
      vertex 51.6406 9.5 20.145
    endloop
  endfacet
  facet normal 0 1 0
    outer loop
      vertex 50.65 9.5 17.5
      vertex 52.4017 9.5 18.4356
      vertex 52.4017 9.5 17.5
    endloop
  endfacet
  facet normal 0 1 0
    outer loop
      vertex 52.4017 9.5 18.4356
      vertex 50.65 9.5 17.5
      vertex 50.4483 9.5 18.5141
    endloop
  endfacet
  facet normal 0 1 0
    outer loop
      vertex 46.6094 9.5 21.7798
      vertex 46.9859 9.5 19.9483
      vertex 44.9889 9.5 20.8442
    endloop
  endfacet
  facet normal 0 1 -0
    outer loop
      vertex 46.1262 9.5 19.3738
      vertex 44.9889 9.5 20.8442
      vertex 46.9859 9.5 19.9483
    endloop
  endfacet
  facet normal 0 1 0
    outer loop
      vertex 46.1262 9.5 19.3738
      vertex 43.889 9.5 19.3303
      vertex 44.9889 9.5 20.8442
    endloop
  endfacet
  facet normal 0 1 -0
    outer loop
      vertex 45.5517 9.5 18.5141
      vertex 43.889 9.5 19.3303
      vertex 46.1262 9.5 19.3738
    endloop
  endfacet
  facet normal 0 1 0
    outer loop
      vertex 43.5 9.5 17.5
      vertex 45.5517 9.5 18.5141
      vertex 45.35 9.5 17.5
    endloop
  endfacet
  facet normal 0 1 0
    outer loop
      vertex 45.5517 9.5 18.5141
      vertex 43.5 9.5 17.5
      vertex 43.889 9.5 19.3303
    endloop
  endfacet
  facet normal 0 -1 0
    outer loop
      vertex 4.5 0 0
      vertex 48.5 0 2.5
      vertex 4.5 0 2.5
    endloop
  endfacet
  facet normal 0 -1 -0
    outer loop
      vertex 48.5 0 2.5
      vertex 4.5 0 0
      vertex 48.5 0 0
    endloop
  endfacet
  facet normal 0.707107 -0.707107 0
    outer loop
      vertex 48.5 0 2.5
      vertex 53 4.5 0
      vertex 53 4.5 2.5
    endloop
  endfacet
  facet normal 0.707107 -0.707107 0
    outer loop
      vertex 53 4.5 0
      vertex 48.5 0 2.5
      vertex 48.5 0 0
    endloop
  endfacet
  facet normal -0.95023 0.311551 0
    outer loop
      vertex 0 29.5 0
      vertex 10 60 2.5
      vertex 10 60 0
    endloop
  endfacet
  facet normal -0.95023 0.311551 0
    outer loop
      vertex 10 60 2.5
      vertex 0 29.5 0
      vertex 0 29.5 2.5
    endloop
  endfacet
  facet normal -0.707107 -0.707107 0
    outer loop
      vertex 4.5 0 0
      vertex 0 4.5 2.5
      vertex 0 4.5 0
    endloop
  endfacet
  facet normal -0.707107 -0.707107 0
    outer loop
      vertex 0 4.5 2.5
      vertex 4.5 0 0
      vertex 4.5 0 2.5
    endloop
  endfacet
  facet normal 0 1 -0
    outer loop
      vertex 43 60 0
      vertex 10 60 2.5
      vertex 43 60 2.5
    endloop
  endfacet
  facet normal 0 1 0
    outer loop
      vertex 10 60 2.5
      vertex 43 60 0
      vertex 10 60 0
    endloop
  endfacet
  facet normal 0.95023 0.311551 0
    outer loop
      vertex 53 29.5 2.5
      vertex 43 60 0
      vertex 43 60 2.5
    endloop
  endfacet
  facet normal 0.95023 0.311551 0
    outer loop
      vertex 43 60 0
      vertex 53 29.5 2.5
      vertex 53 29.5 0
    endloop
  endfacet
endsolid OpenSCAD_Model
